<?xml version="1.0" encoding="utf-8"?>
<!-- Generator: Adobe Illustrator 23.0.3, SVG Export Plug-In . SVG Version: 6.00 Build 0)  -->
<svg version="1.1" id="Layer_1" xmlns="http://www.w3.org/2000/svg" xmlns:xlink="http://www.w3.org/1999/xlink" x="0px" y="0px"
	 viewBox="0 0 2188.9 408.9" style="enable-background:new 0 0 2188.9 408.9;" xml:space="preserve">
<style type="text/css">
	.st0{fill-rule:evenodd;clip-rule:evenodd;}
	.st1{fill:url(#SVGID_1_);}
	.st2{fill:url(#SVGID_2_);}
	.st3{fill:url(#SVGID_3_);}
</style>
<path d="M741.5,224H824c11.6,0,21,9.5,21,21.1c0,11.7-9.4,21.1-21,21.1h-99.5c-1.6,0-3.1,0.6-4.2,1.6l-30,25.9
	c-4.6,4-1.8,11.5,4.2,11.5H819c0,0,0.1,0,0.1-0.1c0-0.1,0.1-0.1,0.1-0.1c1.6,0.1,3.1,0.2,4.8,0.2c33,0,59.8-26.9,59.8-60.1
	c0-31.5-24.1-57.4-54.9-59.9c0,0-0.1,0-0.1-0.1c0-0.1,0-0.1-0.1-0.1h-88.8c-11.6,0-21-9.5-21-21.1c0-11.7,9.4-21.1,21-21.1h99.3
	c1.6,0,3.2-0.6,4.4-1.7l27.9-25.9c4.4-4,1.5-11.4-4.4-11.4H741.5c0,0,0,0,0,0s0,0,0,0c-0.5,0-1.1,0-1.6,0c-33,0-59.8,26.9-59.8,60.1
	s26.8,60.1,59.8,60.1C740.4,224,741,224,741.5,224C741.5,224,741.5,224,741.5,224C741.5,224,741.5,224,741.5,224z"/>
<path d="M1221.8,103.7c-3.6,0-6.5,2.9-6.5,6.6v188.4c0,3.6,2.9,6.6,6.5,6.6h151c1.8,0,3.5-0.8,4.8-2.1l18.9-20.3
	c3.9-4.2,1-11-4.8-11h-131.8c-3.6,0-6.5-2.9-6.5-6.6v-155c0-3.6-2.9-6.6-6.5-6.6H1221.8z"/>
<path class="st0" d="M979.9,103.7C979.9,103.7,979.9,103.7,979.9,103.7C979.9,103.7,979.9,103.7,979.9,103.7
	c-19.3,0.9-34.8,16.4-35.7,35.7c0,0,0,0,0,0c0,0,0,0,0,0c0,0,0,0,0,0v126.7c0,0,0,0,0,0c0,0,0,0,0,0c0,0.5,0,1.1,0,1.6
	c0,20.1,15.8,36.5,35.7,37.3c0,0,0,0,0,0v0v0c0,0,0,0,0,0h137c0,0,0,0,0,0l0,0v0l0,0c19.8-0.9,35.7-17.3,35.7-37.3
	c0-0.5,0-1.1,0-1.6c0,0,0,0,0,0c0,0,0,0,0,0V139.5c0,0,0,0,0,0c0,0,0,0,0,0c-0.8-19.3-16.3-34.9-35.6-35.7c0,0,0,0,0,0c0,0,0,0,0,0
	H979.9z M1005.5,139.5L1005.5,139.5L1005.5,139.5C1005.5,139.5,1005.5,139.5,1005.5,139.5c-12.1,0.5-21.8,10.3-22.3,22.5
	c0,0,0,0,0,0c0,0,0,0,0,0v79.7c0,0,0,0,0,0c0,0,0,0,0,0c0,0.3,0,0.7,0,1c0,12.6,9.9,23,22.3,23.5c0,0,0,0,0,0v0l0,0v0h85.9v0l0,0v0
	c0,0,0,0,0,0c12.4-0.5,22.3-10.9,22.3-23.5c0-0.3,0-0.7,0-1v0v0l0,0c0,0,0,0,0,0V162c0,0,0,0,0,0c0,0,0,0,0,0
	c-0.5-12.2-10.2-21.9-22.3-22.5c0,0,0,0,0,0v0l0,0v0H1005.5z"/>
<path class="st0" d="M1616,298.7c0,3.6,2.9,6.6,6.5,6.6h25.6c3.6,0,6.5-2.9,6.5-6.6V142.7c0,0,0,0,0,0v0l0,0c0,0,0,0,0,0
	c0-0.5,0-1.1,0-1.6c0-20.1-15.7-36.5-35.3-37.3c0,0,0,0,0,0c0,0,0,0,0,0h-131.5c0,0,0,0,0,0c0,0,0,0,0,0c-0.5,0-1.1,0-1.6,0
	c-20.4,0-36.9,16.7-36.9,37.4c0,0.5,0,1.1,0,1.6c0,0,0,0,0,0s0,0,0,0v155.9c0,3.6,2.9,6.6,6.5,6.6h25.6c3.6,0,6.5-2.9,6.5-6.6v-64.9
	c0-3.6,2.9-6.6,6.5-6.6h115.4c3.6,0,6.5,2.9,6.5,6.6V298.7z M1487.6,191.4V159c0-12.6,10.1-22.8,22.5-22.8h83.4
	c12.4,0,22.5,10.2,22.5,22.8v32.4c0,3.6-2.9,6.6-6.5,6.6h-115.4C1490.5,198,1487.6,195,1487.6,191.4z"/>
<path class="st0" d="M2156.5,305.2c-3.6,0-6.5-2.9-6.5-6.6v-64.9c0-3.6-2.9-6.6-6.5-6.6h-116.7c-3.6,0-6.5,2.9-6.5,6.6v64.9
	c0,3.6-2.9,6.6-6.5,6.6h-25.8c-3.6,0-6.5-2.9-6.5-6.6V142.7v0l0,0c0,0,0,0,0,0c0,0,0,0,0,0c0-0.5,0-1.1,0-1.6
	c0-20.6,16.7-37.4,37.3-37.4c0.5,0,1.1,0,1.6,0c0,0,0,0,0,0c0,0,0,0,0,0h133c0,0,0,0,0,0c0,0,0,0,0,0c19.8,0.9,35.7,17.3,35.7,37.3
	c0,0.5,0,1.1,0,1.6c0,0,0,0,0,0c0,0,0,0,0,0c0,0,0,0,0,0v155.9c0,3.6-2.9,6.6-6.5,6.6H2156.5z M2020.2,159v32.4
	c0,3.6,2.9,6.6,6.5,6.6h116.7c3.6,0,6.5-2.9,6.5-6.6V159c0-12.6-10.2-22.8-22.7-22.8h-84.3C2030.3,136.2,2020.2,146.4,2020.2,159z"
	/>
<path d="M1750.9,103.7c1.9,0,3.7,0.8,4.9,2.3l114.8,136.9c3.9,4.6,11.4,1.8,11.4-4.3V110.3c0-3.6,2.9-6.6,6.5-6.6h25.6
	c3.6,0,6.5,2.9,6.5,6.6v188.4c0,3.6-2.9,6.6-6.5,6.6h-31.8c-0.1,0-0.2-0.1-0.2-0.2c0-0.1,0-0.1-0.1-0.2l-116.8-135.9
	c-3.9-4.6-11.4-1.7-11.4,4.3v125.5c0,3.6-2.9,6.6-6.5,6.6h-25.8c-3.6,0-6.5-2.9-6.5-6.6V110.3c0-3.6,2.9-6.6,6.5-6.6H1750.9z"/>
<linearGradient id="SVGID_1_" gradientUnits="userSpaceOnUse" x1="473.5128" y1="459.0891" x2="185.2867" y2="-92.9791" gradientTransform="matrix(1 0 0 -1 0 409.944)">
	<stop  offset="0" style="stop-color:#00FFA3"/>
	<stop  offset="1" style="stop-color:#DC1FFF"/>
</linearGradient>
<path class="st1" d="M84.8,312.2c3.2-3.2,7.5-5,12-5h416.5c7.6,0,11.4,9.2,6,14.5L437,404c-3.2,3.2-7.5,5-12,5H8.5
	c-7.6,0-11.4-9.2-6-14.5L84.8,312.2z"/>
<linearGradient id="SVGID_2_" gradientUnits="userSpaceOnUse" x1="347.4847" y1="524.8864" x2="59.2587" y2="-27.1819" gradientTransform="matrix(1 0 0 -1 0 409.944)">
	<stop  offset="0" style="stop-color:#00FFA3"/>
	<stop  offset="1" style="stop-color:#DC1FFF"/>
</linearGradient>
<path class="st2" d="M84.8,5c3.2-3.2,7.5-5,12-5h416.5c7.6,0,11.4,9.2,6,14.5L437,96.8c-3.2,3.2-7.5,5-12,5H8.5
	c-7.6,0-11.4-9.2-6-14.5L84.8,5z"/>
<linearGradient id="SVGID_3_" gradientUnits="userSpaceOnUse" x1="410.0977" y1="492.1971" x2="121.8717" y2="-59.8711" gradientTransform="matrix(1 0 0 -1 0 409.944)">
	<stop  offset="0" style="stop-color:#00FFA3"/>
	<stop  offset="1" style="stop-color:#DC1FFF"/>
</linearGradient>
<path class="st3" d="M437,157.6c-3.2-3.2-7.5-5-12-5H8.5c-7.6,0-11.4,9.2-6,14.5l82.3,82.2c3.2,3.2,7.5,5,12,5h416.5
	c7.6,0,11.4-9.2,6-14.5L437,157.6z"/>
</svg>
